<svg xmlns="http://www.w3.org/2000/svg" shape-rendering="geometricPrecision" text-rendering="geometricPrecision" image-rendering="optimizeQuality" fill-rule="evenodd" clip-rule="evenodd" viewBox="0 0 512 493.03"><path fill="#0983E0" fill-rule="nonzero" d="M125.195 0h261.61C455.583 0 512 56.416 512 125.195v242.64c0 68.891-56.304 125.195-125.195 125.195h-261.61C56.416 493.03 0 436.614 0 367.835v-242.64C0 56.326 56.349 0 125.195 0z"/><path fill="#88DFF3" d="M125.195 18.969h261.61c58.432 0 106.225 47.816 106.225 106.226v242.64c0 58.409-47.816 106.225-106.225 106.225h-261.61c-58.41 0-106.226-47.793-106.226-106.225v-242.64c0-58.432 47.794-106.226 106.226-106.226z"/><path fill="#A3EDFD" d="M141.365 28.465h223.536c58.432 0 111.937 48.466 111.937 106.226v223.671c0 57.759-54.177 106.225-111.937 106.225H141.365c-57.76 0-106.225-47.794-106.225-106.225V134.691c0-58.432 47.793-106.226 106.225-106.226z"/><path fill="#E8FBFD" d="M309.448 28.465h55.453c58.432 0 111.937 48.376 111.937 106.226v36.729c-17.514-.313-9.765-39.215-22.419-66.695-24.927-54.154-81.589-61.388-144.971-76.26z"/><path fill="#fff" fill-rule="nonzero" d="M255.126 243.939c8.735-32.609 16.663-65.509 24.77-98.297.762-2.934 1.613-5.375 2.553-7.368 4.704-10.056 12.946-12.497 23.539-12.497l10.28.492c6.226.873 11.914 1.59 17.849 3.83a49.808 49.808 0 017.548 3.449 49.563 49.563 0 017.772 5.442c3.382 2.889 5.979 6.495 7.704 10.661l.403 1.097c1.321 3.606 1.993 7.413 1.993 11.467 0 3.18-.425 7.122-1.299 11.736-2.441 10.772-4.994 19.865-8.085 30.503-11.713 36.282-39.26 119.932-59.842 151.846-2.464 3.696-5.756 6.585-9.72 8.511-3.92 1.948-8.376 2.889-13.348 2.889h-31.512a46.55 46.55 0 01-9.989-1.098 34.828 34.828 0 01-9.496-3.627l-.425-.247c-2.307-1.389-4.547-3.068-6.697-5.039-2.172-1.948-4.098-4.233-5.755-6.629l-4.054-6.898c-19.754-47.883-35.341-135.251-46.047-190.592l-.828-7.256c0-4.905 1.791-9.228 5.263-12.789 6.047-6.226 18.118-8.42 30.503-8.152 13.975.314 30.481 3.046 41.097 13.124 4.726 4.345 8.287 9.564 10.549 15.521 7.592 22.105 11.064 66.315 15.274 89.921z"/><path fill="#0983E0" fill-rule="nonzero" d="M251.341 308.753c4.188-14.02 7.794-26.338 10.795-36.931a2414.381 2414.381 0 009.004-32.743c3.001-11.198 6.203-23.808 9.608-37.827 3.404-13.998 7.726-31.422 12.922-52.228 1.008-3.808 2.15-6.271 3.449-7.369 1.299-1.097 4.255-1.657 8.869-1.657 1.993 0 5.151.157 9.451.448 4.3.313 8.645 1.209 13.057 2.71 4.412 1.5 8.309 3.695 11.713 6.606 3.405 2.912 5.107 7.055 5.107 12.453 0 4.815-1.366 12.161-4.054 22.083-2.71 9.899-6.159 21.164-10.37 33.773-4.188 12.609-8.846 25.778-13.952 39.485-5.107 13.706-10.168 26.673-15.162 38.879-5.017 12.206-9.564 22.912-13.662 32.116-4.099 9.205-7.167 15.611-9.16 19.217-2.195 3.807-6.114 5.71-11.713 5.71h-31.512c-5.017 0-9.16-.94-12.475-2.844-3.292-1.903-6.047-4.457-8.242-7.659-2.217-3.203-4.008-6.854-5.419-10.974a141.158 141.158 0 01-3.606-12.453 16783.998 16783.998 0 01-17.559-73.997c-4.905-20.918-8.958-38.432-12.161-52.564-3.202-14.109-5.599-24.949-7.211-32.564-1.591-7.615-2.397-12.318-2.397-14.109 0-2.195 1.613-3.852 4.815-4.95 3.203-1.097 8.601-1.657 16.215-1.657 7.996 0 14.558.806 19.664 2.396 5.106 1.613 9.205 3.852 12.295 6.764 3.114 2.889 5.421 6.293 6.921 10.212 1.501 3.897 2.553 8.153 3.136 12.744.604 3.404 1.209 7.458 1.813 12.161.605 4.703 1.658 11.87 3.159 21.478 1.5 9.608 3.538 22.575 6.136 38.88a13542.4 13542.4 0 0010.526 64.411z"/></svg>